<svg width="266" height="80" viewBox="0 0 266 80" fill="none" xmlns="http://www.w3.org/2000/svg">
<path d="M255.823 79.998H9.83934C4.43085 79.998 0 75.4963 0 69.9975V9.99849C0 4.50164 4.43085 0 9.83934 0H255.823C261.231 0 265.66 4.50164 265.66 9.99849V69.9995C265.66 75.4984 261.232 80 255.821 80L255.823 79.998Z" fill="black"/>
<path d="M255.823 1.60283C260.378 1.60283 264.084 5.36967 264.084 10.0005V69.9975C264.084 74.6283 260.378 78.3951 255.821 78.3951H9.83934C5.28482 78.3951 1.57838 74.6283 1.57838 69.9975V9.99849C1.57838 5.36967 5.28482 1.60081 9.83934 1.60081H255.823V1.60283ZM255.823 0H9.83934C4.43085 0 0 4.50164 0 9.99849V69.9995C0 75.4984 4.43085 80 9.83934 80H255.823C261.231 80 265.66 75.4984 265.66 69.9995V9.99849C265.66 4.50164 261.232 0 255.821 0H255.823Z" fill="#A6A6A6"/>
<path d="M59.8552 40.3447C59.8964 37.2018 61.6058 34.2983 64.3863 32.6506C62.6253 30.2256 59.7831 28.7453 56.7143 28.6521C53.4869 28.3259 50.3563 30.5158 48.7127 30.5158C47.0362 30.5158 44.5029 28.686 41.776 28.741C38.1882 28.8533 34.9237 30.7742 33.1772 33.7963C29.4596 40.0016 32.2297 49.121 35.7928 54.1361C37.5744 56.5928 39.6567 59.3354 42.3836 59.2189C45.0508 59.113 46.0455 57.5797 49.2626 57.5797C52.4509 57.5797 53.386 59.2189 56.1664 59.1575C59.0499 59.1151 60.8294 56.6902 62.5512 54.2123C63.8226 52.4793 64.8086 50.5432 65.4696 48.4815C62.0713 47.0964 59.8613 43.8857 59.8572 40.3278L59.8552 40.3447ZM54.6032 25.3546C55.368 24.4822 55.9523 23.4589 56.3206 22.347C56.6888 21.2351 56.8333 20.0578 56.7452 18.8867C54.3956 19.1109 52.2047 20.2034 50.5787 21.9618C49.8141 22.7878 49.2241 23.7676 48.8459 24.8396C48.4677 25.9116 48.3094 27.0524 48.3811 28.1904C50.797 28.2158 53.0894 27.1696 54.6011 25.3525L54.6032 25.3546ZM97.6777 53.0179H88.5784L86.3952 59.238H82.5437L91.1632 36.2255H95.167L103.786 59.238H99.867L97.6839 53.0179H97.6777ZM89.5216 50.1482H96.7344L93.1795 40.0524H93.0806L89.5216 50.1482Z" fill="white"/>
<path d="M122.393 50.8511C122.393 56.0653 119.499 59.4136 115.131 59.4136C112.874 59.5279 110.744 58.3864 109.652 56.4783H109.57V64.7887H105.997V42.4602H109.457V45.2495H109.523C110.662 43.3519 112.791 42.2125 115.063 42.2845C119.481 42.2845 122.391 45.6518 122.391 50.849L122.393 50.8511ZM118.721 50.8511C118.721 47.4541 116.9 45.2177 114.122 45.2177C111.393 45.2177 109.556 47.4986 109.556 50.8511C109.556 54.2312 111.389 56.4952 114.122 56.4952C116.902 56.4952 118.721 54.2778 118.721 50.8511Z" fill="white"/>
<path d="M141.549 50.8511C141.549 56.0653 138.656 59.4136 134.287 59.4136C132.03 59.5279 129.9 58.3864 128.809 56.4783H128.726V64.7887H125.153V42.4602H128.613V45.2495H128.679C129.818 43.3519 131.947 42.2125 134.219 42.2845C138.637 42.2845 141.547 45.6518 141.547 50.849L141.549 50.8511ZM137.877 50.8511C137.877 47.4541 136.056 45.2177 133.278 45.2177C130.549 45.2177 128.712 47.4986 128.712 50.8511C128.712 54.2312 130.545 56.4952 133.278 56.4952C136.058 56.4952 137.877 54.2778 137.877 50.8511Z" fill="white"/>
<path d="M154.209 52.8265C154.477 55.1096 156.774 56.6069 159.915 56.6069C162.926 56.6069 165.092 55.1075 165.092 53.0489C165.092 51.2615 163.787 50.1898 160.693 49.4592L157.6 48.7391C153.217 47.7183 151.182 45.7424 151.182 42.5338C151.182 38.5629 154.772 35.8351 159.867 35.8351C164.913 35.8351 168.369 38.5629 168.487 42.5338H164.858C164.641 40.2381 162.674 38.8488 159.795 38.8488C156.916 38.8488 154.949 40.2529 154.949 42.2924C154.949 43.9189 156.185 44.8762 159.284 45.6089L161.914 46.2316C166.812 47.3477 168.847 49.2453 168.847 52.6105C168.847 56.9161 165.29 59.6121 159.632 59.6121C154.339 59.6121 150.764 56.9796 150.533 52.8181H154.191L154.209 52.8265ZM176.577 38.4887V42.4597H179.887V45.1875H176.597V54.4361C176.597 55.8762 177.261 56.5434 178.715 56.5434C179.108 56.5368 179.5 56.5099 179.891 56.4629V59.1737C179.236 59.2912 178.572 59.3444 177.907 59.3326C174.406 59.3326 173.009 58.0555 173.009 54.8004V45.1854H170.476V42.4322H173.009V38.4612H176.597L176.577 38.4887ZM181.802 50.8506C181.802 45.5708 185.027 42.2522 190.057 42.2522C195.103 42.2522 198.295 45.5687 198.295 50.8506C198.295 56.1452 195.103 59.449 190.057 59.449C185.011 59.449 181.802 56.1452 181.802 50.8506ZM194.674 50.8506C194.674 47.2503 192.953 45.0901 190.061 45.0901C187.169 45.0901 185.447 47.2439 185.447 50.8506C185.447 54.4848 187.167 56.6069 190.061 56.6069C192.955 56.6069 194.674 54.4848 194.674 50.8506ZM201.257 42.4597H204.664V45.2934H204.746C205.22 43.4551 206.97 42.1907 208.933 42.2649C209.344 42.2646 209.754 42.3071 210.156 42.3919V45.6111C209.634 45.4584 209.093 45.3884 208.55 45.4035C207.52 45.3612 206.484 45.7635 205.77 46.5048C205.055 47.246 204.711 48.2541 204.828 49.258V59.2118H201.255V42.4343L201.257 42.4597ZM226.631 54.309C226.151 57.3545 223.074 59.4448 219.134 59.4448C214.072 59.4448 210.929 56.1749 210.929 50.9311C210.929 45.6682 214.088 42.2543 218.961 42.2543C223.777 42.2543 226.804 45.4437 226.804 50.5308V51.7104H214.535V51.918C214.42 53.1887 214.869 54.4043 215.763 55.3129C216.219 55.7677 216.761 56.1226 217.354 56.356C217.948 56.5893 218.582 56.6963 219.217 56.6704C220.951 56.8272 222.584 55.8657 223.233 54.3112H226.625L226.631 54.309ZM214.556 49.3025H223.258C223.287 48.7407 223.197 48.1792 222.995 47.6564C222.793 47.1336 222.484 46.662 222.088 46.2739C221.675 45.8689 221.189 45.5516 220.657 45.3404C220.125 45.1293 219.558 45.0283 218.988 45.0435C217.827 45.0306 216.705 45.4737 215.851 46.2824C215.447 46.6685 215.123 47.1356 214.9 47.6548C214.676 48.1741 214.559 48.7348 214.554 49.3025H214.556ZM89.0746 18.9051C89.8151 18.8493 90.5587 18.9556 91.2563 19.217C91.9539 19.4784 92.5897 19.8889 93.1217 20.4214C93.6319 20.9308 94.0194 21.5556 94.2536 22.246C94.4878 22.9365 94.5621 23.6736 94.4707 24.3987C94.4707 27.9313 92.4894 29.9623 89.0746 29.9623H84.9307V18.9051H89.0746ZM86.7122 28.3972H88.8748C89.4036 28.4312 89.9334 28.3488 90.4289 28.1556C90.9243 27.9624 91.374 27.6629 91.7479 27.2769C92.4812 26.506 92.8189 25.4555 92.6583 24.4178C92.729 23.9034 92.6822 23.3792 92.5217 22.8866C92.3612 22.394 92.0913 21.9466 91.7335 21.5799C91.3603 21.1974 90.9127 20.9002 90.4201 20.7079C89.9274 20.5156 89.4009 20.4324 88.8748 20.4638H86.7122V28.3951V28.3972Z" fill="white"/>
<path d="M96.483 25.7888C96.3347 24.2936 97.0803 22.8238 98.4025 22.0529C99.7248 21.282 101.403 21.2609 102.728 22.0529C104.052 22.845 104.796 24.2936 104.647 25.7888C104.798 27.2861 104.056 28.7368 102.732 29.531C101.407 30.3252 99.7289 30.3252 98.4025 29.531C97.0762 28.7368 96.3347 27.2861 96.4871 25.7888H96.483ZM102.888 25.7888C102.888 23.9802 102.044 22.9213 100.567 22.9213C99.0904 22.9213 98.246 23.9802 98.246 25.7888C98.246 27.6102 99.0822 28.6606 100.567 28.6606C102.052 28.6606 102.888 27.6017 102.888 25.7888Z" fill="white"/>
<path d="M115.499 29.9556H113.728L111.936 23.8096H111.8L110.019 29.9556H108.264L105.879 21.6113H107.609L109.16 27.9776H109.288L111.067 21.6113H112.706L114.486 27.9776H114.622L116.167 21.6113H117.876L115.499 29.9556Z" fill="white"/>
<path d="M119.884 21.6165H121.528V22.9423H121.655C122.1 21.9681 123.138 21.3688 124.238 21.4556C125.091 21.3921 125.927 21.7097 126.51 22.3133C126.795 22.6024 127.009 22.9567 127.135 23.3472C127.261 23.7378 127.295 24.1535 127.235 24.5603V29.9608H125.525V24.9733C125.525 23.6327 124.922 22.9656 123.657 22.9656C123.374 22.9512 123.092 22.997 122.827 23.1001C122.562 23.2032 122.321 23.3615 122.119 23.565C121.925 23.7598 121.776 23.9972 121.685 24.2595C121.593 24.5218 121.56 24.8021 121.589 25.0792V29.9608H119.88V21.6165H119.884Z" fill="white"/>
<path d="M129.958 18.3574H131.667V29.959H129.958V18.3574ZM134.04 25.7868C133.892 24.2916 134.658 22.8218 135.96 22.0509C136.619 21.6667 137.364 21.4647 138.122 21.4647C138.88 21.4647 139.625 21.6667 140.285 22.0509C141.609 22.843 142.353 24.2916 142.204 25.7868C142.355 27.2841 141.611 28.7348 140.289 29.529C138.967 30.3232 137.286 30.3232 135.96 29.529C134.633 28.7348 133.89 27.2841 134.044 25.7868H134.04ZM140.425 25.7868C140.425 23.9782 139.601 22.9193 138.104 22.9193C136.606 22.9193 135.783 23.9782 135.783 25.7868C135.783 27.6082 136.619 28.6586 138.104 28.6586C139.589 28.6586 140.425 27.5997 140.425 25.7868ZM144.004 27.5997C144.004 26.1172 145.164 25.2319 147.224 25.1091L149.567 24.9778V24.2577C149.567 23.3767 148.964 22.8811 147.796 22.8811C146.843 22.8811 146.181 23.22 145.992 23.8087H144.338C144.513 22.375 145.912 21.4791 147.874 21.4791C150.045 21.4791 151.269 22.5211 151.269 24.2831V29.9844H149.625V28.8111H149.489C149.201 29.2398 148.811 29.5853 148.356 29.8148C147.901 30.0443 147.396 30.1501 146.89 30.122C146.53 30.16 146.166 30.1237 145.819 30.0153C145.472 29.907 145.15 29.7287 144.872 29.4909C144.604 29.2634 144.388 28.9786 144.238 28.6564C144.088 28.3342 144.008 27.9822 144.004 27.6251V27.5997ZM149.57 26.8881V26.1892L147.456 26.3205C146.262 26.3989 145.726 26.7864 145.726 27.5234C145.726 28.2732 146.402 28.7094 147.333 28.7094C147.883 28.7624 148.433 28.5993 148.857 28.2562C149.063 28.0918 149.233 27.885 149.357 27.6491C149.481 27.4131 149.555 27.1532 149.576 26.886L149.57 26.8881ZM153.514 25.7868C153.514 23.1501 154.92 21.4791 157.108 21.4791C157.638 21.4495 158.166 21.5701 158.635 21.8277C159.103 22.0854 159.494 22.4703 159.765 22.9404H159.892V18.3574H161.602V29.959H159.964V28.6395H159.828C159.272 29.5714 158.226 30.1369 157.11 30.0966C154.906 30.0966 153.516 28.4023 153.516 25.7826L153.514 25.7868ZM155.279 25.7868C155.279 27.5573 156.144 28.6247 157.592 28.6247C159.04 28.6247 159.919 27.5658 159.919 25.7974C159.919 24.029 159.019 22.9637 157.592 22.9637C156.164 22.9637 155.279 24.0354 155.279 25.791V25.7868Z" fill="white"/>
<path d="M168.664 25.7888C168.515 24.2936 169.261 22.8238 170.583 22.0529C171.905 21.282 173.584 21.2609 174.908 22.0529C176.233 22.845 176.976 24.2936 176.828 25.7888C176.978 27.2861 176.237 28.7368 174.912 29.531C173.588 30.3252 171.91 30.3252 170.583 29.531C169.257 28.7368 168.515 27.2861 168.668 25.7888H168.664ZM175.069 25.7888C175.069 23.9802 174.225 22.9213 172.748 22.9213C171.271 22.9213 170.427 23.9802 170.427 25.7888C170.427 27.6102 171.263 28.6606 172.748 28.6606C174.233 28.6606 175.069 27.6017 175.069 25.7888Z" fill="white"/>
<path d="M179.121 21.6165H180.765V22.9423H180.893C181.337 21.9681 182.375 21.3688 183.475 21.4556C184.328 21.3921 185.164 21.7097 185.747 22.3133C186.032 22.6024 186.246 22.9567 186.372 23.3472C186.498 23.7378 186.532 24.1535 186.472 24.5603V29.9608H184.763V24.9733C184.763 23.6327 184.159 22.9656 182.894 22.9656C182.612 22.9512 182.329 22.997 182.064 23.1001C181.8 23.2032 181.558 23.3615 181.356 23.565C181.162 23.7598 181.014 23.9972 180.922 24.2595C180.83 24.5218 180.798 24.8021 180.827 25.0792V29.9608H179.117V21.6165H179.121Z" fill="white"/>
<path d="M196.122 19.5392V21.657H197.976V23.0442H196.122V27.335C196.122 28.2096 196.493 28.5908 197.346 28.5908C197.563 28.5908 197.781 28.5781 197.997 28.5527V29.9251C197.688 29.978 197.379 30.0056 197.07 30.0098C195.171 30.0098 194.392 29.366 194.392 27.7564V23.04H193.019V21.6528H194.392V19.5349H196.102L196.122 19.5392ZM200.334 18.3574H202.027V22.9531H202.163C202.629 21.9683 203.683 21.3711 204.799 21.4579C205.214 21.4337 205.628 21.4996 206.016 21.6514C206.403 21.8033 206.755 22.0376 207.049 22.339C207.326 22.6305 207.536 22.9827 207.662 23.3691C207.789 23.7556 207.829 24.1665 207.78 24.5712V29.9568H206.07V24.9757C206.07 23.6414 205.426 22.968 204.217 22.968C203.926 22.9435 203.634 22.9816 203.358 23.0797C203.083 23.1777 202.83 23.3337 202.616 23.5377C202.412 23.733 202.253 23.9739 202.153 24.2418C202.053 24.5097 202.013 24.7977 202.038 25.0837V29.9547H200.328V18.3574H200.334ZM217.742 27.7077C217.262 29.2813 215.682 30.2978 213.994 30.122C212.84 30.1517 211.728 29.69 210.96 28.8598C210.192 28.0296 209.837 26.9177 209.992 25.8143C209.917 25.2628 209.965 24.7012 210.132 24.1715C210.299 23.6418 210.581 23.1579 210.956 22.7562C211.347 22.3373 211.817 22.0056 212.338 21.7815C212.859 21.5575 213.419 21.4459 213.983 21.4537C216.393 21.4537 217.845 23.0421 217.845 25.6597V26.2316H211.734V26.3226C211.708 26.6319 211.749 26.9433 211.853 27.2346C211.958 27.5259 212.123 27.7901 212.338 28.0084C212.561 28.2364 212.827 28.4162 213.119 28.5373C213.411 28.6584 213.724 28.7183 214.039 28.7137C214.44 28.7644 214.847 28.696 215.212 28.5167C215.577 28.3373 215.885 28.0544 216.098 27.7013H217.742V27.7077ZM211.732 25.018H216.105C216.124 24.735 216.083 24.4511 215.985 24.1859C215.887 23.9208 215.734 23.6808 215.536 23.4826C215.33 23.2759 215.086 23.1141 214.817 23.0068C214.549 22.8994 214.263 22.8488 213.975 22.8578C213.357 22.8515 212.801 23.076 212.381 23.4826C211.961 23.8892 211.726 24.4441 211.732 25.0202V25.018Z" fill="white"/>
</svg>
