<svg width="267" height="68" viewBox="0 0 267 68" fill="none" xmlns="http://www.w3.org/2000/svg">
<path d="M85.4712 24.9204C81.3128 20.0663 73.1672 16.4431 68.8376 14.313C58.1392 9.05213 46.9484 4.78669 35.4633 1.59162C32.402 0.735323 29.2765 -0.0460504 26.1029 0.00211643C17.7058 0.135913 10.0044 7.8105 5.32153 14.1204C2.01943 18.5785 -0.715381 24.5726 0.167678 30.2884C2.05154 42.4532 13.6597 54.8428 22.9292 62.132C25.5944 64.2299 28.4577 66.162 31.6742 67.243C36.8173 68.9717 41.7678 67.4892 46.4988 65.2789C54.6069 61.4898 62.4207 57.0049 69.5815 51.6263C76.6192 46.3386 94.1947 35.0997 85.4712 24.9151" fill="#FACA06"/>
<path d="M77.3577 29.3845C77.1008 29.0313 76.7476 28.753 76.3569 28.571C75.9448 28.373 75.4899 28.3355 75.0671 28.1643C74.7246 28.0251 74.4784 27.3454 74.1412 27.1795C73.8415 27.035 73.5311 26.9119 73.21 26.8102C72.9103 26.7193 72.6106 26.6979 72.3055 26.6336C71.5456 26.5319 69.5118 26.1252 68.7626 25.9272C68.5431 25.8683 68.693 26.4035 68.7358 26.4891C68.8589 26.746 69.0623 26.8745 69.3406 26.9333C69.651 27.0029 69.9989 27.0243 70.2236 27.2652C70.0631 27.3829 69.8865 27.5274 69.758 27.6826C69.5332 27.9555 69.3727 28.282 69.2389 28.6085C68.2488 30.9847 66.2793 33.3395 64.0208 34.6079C60.5153 36.5721 59.3058 35.0468 57.2132 31.7768C55.811 29.5772 54.0449 27.6398 51.8239 26.1787C49.6724 24.7658 47.2587 23.6633 44.7969 22.9194C42.0514 22.0845 39.156 21.9989 36.4051 21.1908C33.97 20.479 27.1196 19.1838 24.8558 12.8579C23.2181 16.9896 24.2671 21.5975 26.3115 25.3866C28.6396 29.7003 32.2093 32.6705 36.0733 35.582C36.7156 36.0636 37.3471 36.556 37.9679 37.0591C39.8785 38.5951 42.4046 40.4789 42.6615 43.1067C43.0308 46.8798 38.7814 47.811 35.8753 48.0946C30.8124 48.587 25.9155 46.6978 21.5965 44.2145C21.2165 43.9951 20.8419 43.7757 20.4673 43.5456C18.2088 42.1701 15.9182 40.7519 13.7293 39.2266C13.3867 38.9858 12.9853 39.4407 13.269 39.7511C17.9465 44.9263 23.3038 49.636 29.9454 52.1407C34.9601 54.0299 40.494 54.5222 45.7656 53.5375C50.9569 52.5688 55.8913 50.1498 59.9534 46.7888C60.5582 46.2857 61.1469 45.7612 61.7142 45.2207C63.3786 43.6205 64.8825 41.8544 66.1937 39.9544C68.6181 36.4543 71.1709 32.5367 74.9654 30.3906C75.6933 29.9786 76.5228 29.5932 77.3256 30.0588C77.4058 30.107 77.5075 30.0481 77.5022 29.9518C77.4915 29.7752 77.4647 29.5343 77.3577 29.3898" fill="#58585A"/>
<path d="M26.3117 25.3749C28.6398 29.6886 32.2095 32.6588 36.0735 35.5703C36.7157 36.0519 37.3473 36.5497 37.9734 37.0474C39.884 38.5834 42.4048 40.4672 42.667 43.095C42.8062 44.5079 42.2549 45.5569 41.3665 46.3329C43.807 44.2992 48.613 38.7065 36.2448 31.2299C21.9553 22.592 24.8613 12.8516 24.8613 12.8516C23.2237 16.9832 24.2726 21.5912 26.317 25.3803" fill="url(#paint0_linear_2094_51352)"/>
<path d="M110.432 47.2434C108.093 45.9697 106.258 44.2089 104.93 41.9665C103.603 39.724 102.939 37.1873 102.939 34.3668C102.939 31.5464 103.608 29.0149 104.952 26.7672C106.295 24.5247 108.136 22.764 110.475 21.4902C112.814 20.2165 115.436 19.5796 118.342 19.5796C120.697 19.5796 122.843 19.9917 124.791 20.8105C126.734 21.6347 128.377 22.8228 129.72 24.3856L126.268 27.6288C124.186 25.3864 121.628 24.2625 118.588 24.2625C116.619 24.2625 114.853 24.696 113.29 25.5576C111.727 26.4193 110.512 27.6181 109.635 29.1487C108.757 30.6847 108.318 32.4187 108.318 34.3668C108.318 36.3149 108.757 38.0489 109.635 39.5849C110.512 41.1209 111.727 42.3143 113.29 43.176C114.853 44.0377 116.619 44.4712 118.588 44.4712C121.628 44.4712 124.186 43.3366 126.268 41.062L129.72 44.3481C128.377 45.9108 126.729 47.0989 124.77 47.9231C122.811 48.7473 120.654 49.154 118.299 49.154C115.399 49.154 112.776 48.5172 110.432 47.2434Z" fill="white"/>
<path d="M133.461 22.3135C132.83 21.7248 132.52 20.9916 132.52 20.1139C132.52 19.2362 132.835 18.5084 133.461 17.9143C134.093 17.3256 134.869 17.0312 135.8 17.0312C136.731 17.0312 137.513 17.3149 138.139 17.8715C138.771 18.4334 139.081 19.1399 139.081 19.9855C139.081 20.89 138.771 21.6499 138.155 22.2654C137.54 22.8808 136.753 23.1913 135.795 23.1913C134.837 23.1913 134.082 22.8969 133.456 22.3082L133.461 22.3135ZM133.215 26.8091H138.348V48.7411H133.215V26.8091Z" fill="white"/>
<path d="M157.812 47.5541C157.208 48.0465 156.48 48.4158 155.613 48.662C154.751 48.9081 153.841 49.0312 152.883 49.0312C150.475 49.0312 148.612 48.3997 147.296 47.142C145.985 45.8843 145.326 44.0486 145.326 41.6403V31.0864H141.714V26.9815H145.326V21.9722H150.459V26.9815H156.33V31.0864H150.459V41.5172C150.459 42.5822 150.716 43.4011 151.24 43.963C151.759 44.525 152.514 44.8033 153.499 44.8033C154.649 44.8033 155.607 44.5036 156.373 43.8988L157.812 47.5541Z" fill="white"/>
<path d="M160.103 22.3135C159.472 21.7248 159.161 20.9916 159.161 20.1139C159.161 19.2362 159.477 18.5084 160.103 17.9143C160.735 17.3256 161.511 17.0312 162.442 17.0312C163.373 17.0312 164.154 17.3149 164.781 17.8715C165.412 18.4334 165.723 19.1399 165.723 19.9855C165.723 20.89 165.412 21.6499 164.797 22.2654C164.181 22.8808 163.394 23.1913 162.436 23.1913C161.478 23.1913 160.724 22.8969 160.098 22.3082L160.103 22.3135ZM159.857 26.8091H164.989V48.7411H159.857V26.8091Z" fill="white"/>
<path d="M184.235 47.5541C183.63 48.0465 182.902 48.4158 182.035 48.662C181.173 48.9081 180.264 49.0312 179.306 49.0312C176.897 49.0312 175.035 48.3997 173.718 47.142C172.402 45.8843 171.749 44.0486 171.749 41.6403V31.0864H168.136V26.9815H171.749V21.9722H176.881V26.9815H182.752V31.0864H176.881V41.5172C176.881 42.5822 177.138 43.4011 177.663 43.963C178.182 44.525 178.936 44.8033 179.921 44.8033C181.072 44.8033 182.03 44.5036 182.795 43.8988L184.235 47.5541Z" fill="white"/>
<path d="M198.781 26.564V31.4502C198.342 31.3699 197.946 31.3271 197.588 31.3271C195.591 31.3271 194.029 31.9105 192.905 33.0718C191.781 34.2332 191.219 35.9137 191.219 38.1026V48.7421H186.086V26.8102H190.973V30.0159C192.45 27.7146 195.051 26.564 198.776 26.564H198.781Z" fill="white"/>
<path d="M217.7 28.8867C219.412 30.4334 220.269 32.7668 220.269 35.8869V48.7421H215.42V46.0715C214.788 47.0295 213.895 47.7627 212.728 48.2712C211.561 48.7796 210.159 49.0311 208.516 49.0311C206.873 49.0311 205.433 48.7528 204.202 48.1909C202.972 47.6289 202.019 46.8476 201.35 45.8468C200.676 44.846 200.344 43.7167 200.344 42.459C200.344 40.4895 201.077 38.9054 202.543 37.7173C204.01 36.5292 206.316 35.9297 209.463 35.9297H215.131V35.6033C215.131 34.0726 214.671 32.8952 213.756 32.071C212.84 31.2522 211.476 30.8401 209.667 30.8401C208.436 30.8401 207.221 31.0328 206.033 31.4128C204.839 31.7981 203.833 32.3279 203.014 33.013L201.002 29.2774C202.153 28.3997 203.533 27.7307 205.15 27.2651C206.766 26.7994 208.479 26.564 210.282 26.564C213.515 26.564 215.982 27.34 217.695 28.8867H217.7ZM213.017 44.4125C214.018 43.8238 214.719 42.9835 215.131 41.8864V39.3389H209.833C206.873 39.3389 205.396 40.3129 205.396 42.2557C205.396 43.1869 205.765 43.9254 206.504 44.4713C207.242 45.0172 208.27 45.2955 209.586 45.2955C210.903 45.2955 212.016 45.0012 213.017 44.4125Z" fill="white"/>
<path d="M243.437 28.9874C245.107 30.6036 245.941 33.0013 245.941 36.1749V48.7411H240.809V36.8279C240.809 34.9119 240.359 33.4669 239.455 32.4928C238.551 31.5242 237.266 31.0371 235.596 31.0371C233.707 31.0371 232.214 31.6044 231.122 32.7444C230.025 33.879 229.479 35.5167 229.479 37.6521V48.7411H224.347V26.8092H229.233V29.6403C230.084 28.6288 231.149 27.8635 232.439 27.339C233.723 26.8199 235.174 26.5576 236.79 26.5576C239.557 26.5576 241.772 27.3658 243.442 28.982L243.437 28.9874Z" fill="white"/>
<path d="M251.566 48.3354C249.87 47.8698 248.511 47.2811 247.499 46.5693L249.469 42.6678C250.453 43.3261 251.636 43.8506 253.022 44.2466C254.403 44.6426 255.768 44.8406 257.111 44.8406C260.178 44.8406 261.708 44.0325 261.708 42.4163C261.708 41.6509 261.318 41.1157 260.536 40.816C259.755 40.5163 258.502 40.2273 256.779 39.9544C254.97 39.6814 253.498 39.3657 252.364 39.0125C251.229 38.6592 250.239 38.0331 249.404 37.1447C248.569 36.2562 248.152 35.0146 248.152 33.4305C248.152 31.3486 249.019 29.6841 250.758 28.4425C252.498 27.1955 254.847 26.5747 257.801 26.5747C259.305 26.5747 260.814 26.746 262.318 27.0885C263.822 27.431 265.053 27.8913 266.016 28.4639L264.047 32.3654C262.185 31.2737 260.092 30.7224 257.764 30.7224C256.26 30.7224 255.115 30.9472 254.333 31.4021C253.552 31.8517 253.161 32.4511 253.161 33.1896C253.161 34.0138 253.579 34.5918 254.414 34.9343C255.249 35.2768 256.544 35.598 258.294 35.8977C260.044 36.1706 261.483 36.4864 262.607 36.8396C263.731 37.1982 264.695 37.7976 265.503 38.6485C266.311 39.4995 266.712 40.7037 266.712 42.261C266.712 44.3162 265.824 45.9592 264.042 47.1901C262.259 48.4211 259.84 49.0365 256.774 49.0365C254.992 49.0365 253.258 48.8064 251.556 48.3408L251.566 48.3354Z" fill="white"/>
<defs>
<linearGradient id="paint0_linear_2094_51352" x1="24.0479" y1="29.5869" x2="44.3529" y2="29.5869" gradientUnits="userSpaceOnUse">
<stop stop-color="#FACA06"/>
<stop offset="0.12" stop-color="#F3C509"/>
<stop offset="0.29" stop-color="#E0B813"/>
<stop offset="0.49" stop-color="#C2A222"/>
<stop offset="0.72" stop-color="#988538"/>
<stop offset="0.96" stop-color="#625F54"/>
<stop offset="1" stop-color="#58585A"/>
</linearGradient>
</defs>
</svg>
