<svg width="269" height="80" viewBox="0 0 269 80" fill="none" xmlns="http://www.w3.org/2000/svg">
<path d="M258.73 79.998H9.95116C4.4812 79.998 0 75.4963 0 69.9975V9.99849C0 4.50164 4.4812 0 9.95116 0H258.73C264.2 0 268.679 4.50164 268.679 9.99849V69.9995C268.679 75.4984 264.2 80 258.728 80L258.73 79.998Z" fill="black"/>
<path d="M258.73 1.60283C263.336 1.60283 267.085 5.36967 267.085 10.0005V69.9975C267.085 74.6283 263.336 78.3951 258.728 78.3951H9.95116C5.34487 78.3951 1.59631 74.6283 1.59631 69.9975V9.99849C1.59631 5.36967 5.34487 1.60081 9.95116 1.60081H258.73V1.60283ZM258.73 0H9.95116C4.4812 0 0 4.50164 0 9.99849V69.9995C0 75.4984 4.4812 80 9.95116 80H258.73C264.2 80 268.679 75.4984 268.679 69.9995V9.99849C268.679 4.50164 264.2 0 258.728 0H258.73Z" fill="#A6A6A6"/>
<path d="M94.3695 20.4868C94.3695 22.1567 93.8719 23.4942 92.8918 24.4917C91.7648 25.6742 90.297 26.2691 88.4984 26.2691C87.6836 26.2829 86.8745 26.1308 86.1199 25.8218C85.3652 25.5129 84.6807 25.0536 84.1074 24.4717C82.9009 23.2617 82.2988 21.7767 82.2988 19.9993C82.2988 18.2218 82.9009 16.7369 84.1074 15.5369C84.6788 14.9517 85.3628 14.4896 86.1177 14.1789C86.8726 13.8681 87.6827 13.7152 88.4984 13.7294C89.3541 13.7294 90.1701 13.9069 90.9488 14.2369C91.725 14.5694 92.3569 15.0194 92.8146 15.5744L91.7747 16.6294C90.9762 15.6819 89.889 15.2144 88.4984 15.2144C87.2445 15.2144 86.1574 15.6544 85.2344 16.5419C84.3214 17.4318 83.8636 18.5843 83.8636 19.9993C83.8636 21.4143 84.3214 22.5767 85.2344 23.4667C86.1043 24.3265 87.2783 24.8039 88.4984 24.7942C89.8293 24.7942 90.9488 24.3442 91.832 23.4567C92.4141 22.8692 92.745 22.0592 92.832 21.0243H88.4984V19.5793H94.2799C94.3496 19.8918 94.3695 20.1943 94.3695 20.4868ZM103.542 15.4769H98.1111V19.2768H103.007V20.7218H98.1111V24.5217H103.542V25.9942H96.5736V14.0044H103.542V15.4769ZM110.015 25.9942H108.478V15.4769H105.147V14.0044H113.349V15.4769H110.015V25.9942ZM119.285 25.9942V14.0044H120.819V25.9942H119.285ZM127.624 25.9942H126.099V15.4769H122.755V14.0044H130.967V15.4769H127.624V25.9942ZM146.496 24.4517C145.319 25.6642 143.861 26.2691 142.122 26.2691C140.373 26.2691 138.915 25.6642 137.739 24.4517C136.565 23.2417 135.98 21.7567 135.98 19.9993C135.98 18.2418 136.565 16.7569 137.739 15.5469C138.915 14.3344 140.373 13.7294 142.122 13.7294C143.851 13.7294 145.309 14.3344 146.486 15.5569C147.67 16.7769 148.255 18.2518 148.255 19.9993C148.255 21.7567 147.67 23.2417 146.496 24.4517ZM138.876 23.4467C139.761 24.3442 140.839 24.7942 142.122 24.7942C143.396 24.7942 144.483 24.3442 145.359 23.4467C146.242 22.5492 146.69 21.3968 146.69 19.9993C146.69 18.6018 146.242 17.4493 145.359 16.5519C144.941 16.115 144.438 15.7697 143.881 15.5378C143.324 15.3059 142.725 15.1924 142.122 15.2044C140.839 15.2044 139.761 15.6544 138.876 16.5519C137.993 17.4493 137.545 18.6018 137.545 19.9993C137.545 21.3968 137.993 22.5492 138.876 23.4467ZM150.411 25.9942V14.0044H152.277L158.079 23.3292H158.146L158.079 21.0243V14.0044H159.614V25.9942H158.012L151.936 16.2094H151.869L151.936 18.5243V25.9942H150.411Z" fill="white" stroke="white" stroke-width="0.16" stroke-miterlimit="10"/>
<path d="M135.604 43.5088C130.931 43.5088 127.113 47.0818 127.113 52.0155C127.113 56.9087 130.931 60.5201 135.604 60.5201C140.29 60.5201 144.108 56.9067 144.108 52.0155C144.108 47.0838 140.29 43.5088 135.604 43.5088ZM135.604 57.1712C133.041 57.1712 130.833 55.0435 130.833 52.0155C130.833 48.9471 133.041 46.8578 135.604 46.8578C138.17 46.8578 140.387 48.9471 140.387 52.0155C140.387 55.0435 138.17 57.1712 135.604 57.1712ZM117.074 43.5088C112.388 43.5088 108.58 47.0818 108.58 52.0155C108.58 56.9087 112.388 60.5201 117.074 60.5201C121.756 60.5201 125.568 56.9067 125.568 52.0155C125.568 47.0838 121.756 43.5088 117.074 43.5088ZM117.074 57.1712C114.507 57.1712 112.293 55.0435 112.293 52.0155C112.293 48.9471 114.507 46.8578 117.074 46.8578C119.639 46.8578 121.845 48.9471 121.845 52.0155C121.845 55.0435 119.639 57.1712 117.074 57.1712ZM95.0215 46.1149V49.7303H103.613C103.36 51.749 102.689 53.2347 101.659 54.2703C100.406 55.5219 98.4524 56.9087 95.0215 56.9087C93.7805 56.9154 92.5504 56.6716 91.4028 56.1912C90.2552 55.7109 89.2127 55.0037 88.336 54.1106C87.4592 53.2175 86.7656 52.1563 86.2954 50.9885C85.8251 49.8208 85.5876 48.5697 85.5965 47.3079C85.5876 46.0461 85.8251 44.7951 86.2954 43.6273C86.7656 42.4596 87.4592 41.3984 88.336 40.5053C89.2127 39.6122 90.2552 38.9049 91.4028 38.4246C92.5504 37.9443 93.7805 37.7004 95.0215 37.7071C97.8806 37.7071 99.9614 38.8315 101.494 40.285L104.03 37.7374C101.885 35.6783 99.0262 34.0957 95.0215 34.0957C87.7746 34.0957 81.6792 40.0225 81.6792 47.3079C81.6792 54.5933 87.7746 60.5201 95.0215 60.5201C98.9408 60.5201 101.883 59.2302 104.196 56.8098C106.567 54.4278 107.308 51.0768 107.308 48.3718C107.308 47.532 107.238 46.7609 107.113 46.1149H95.0215ZM185.193 48.9188C184.495 47.0152 182.338 43.5088 177.945 43.5088C173.59 43.5088 169.967 46.9546 169.967 52.0155C169.967 56.7795 173.553 60.5201 178.361 60.5201C179.753 60.5336 181.125 60.1963 182.357 59.5382C183.588 58.8801 184.64 57.9219 185.418 56.7492L182.533 54.8174C181.57 56.2325 180.258 57.1712 178.363 57.1712C176.479 57.1712 175.127 56.3031 174.263 54.5933L185.585 49.8858L185.193 48.9168V48.9188ZM173.65 51.751C173.553 48.4707 176.185 46.7911 178.072 46.7911C179.549 46.7911 180.804 47.532 181.221 48.5958L173.65 51.751ZM164.449 60.0033H168.17V35.0041H164.449V60.0033ZM158.354 45.4023H158.229C157.393 44.4071 155.799 43.5088 153.777 43.5088C149.538 43.5088 145.663 47.2474 145.663 52.0437C145.663 56.8098 149.538 60.5201 153.777 60.5201C155.799 60.5201 157.393 59.6117 158.229 58.5883H158.354V59.8075C158.354 63.0596 156.625 64.8078 153.835 64.8078C151.562 64.8078 150.152 63.1585 149.568 61.7697L146.332 63.1283C147.265 65.3831 149.735 68.1568 153.837 68.1568C158.199 68.1568 161.88 65.5769 161.88 59.3008V44.0235H158.354V45.4003V45.4023ZM154.097 57.1712C151.532 57.1712 149.386 55.0112 149.386 52.0437C149.386 49.046 151.532 46.8578 154.097 46.8578C156.625 46.8578 158.618 49.046 158.618 52.0437C158.618 55.0112 156.625 57.1712 154.097 57.1712ZM202.618 35.0041H193.717V60.0033H197.43V50.5297H202.618C206.74 50.5297 210.782 47.532 210.782 42.7659C210.782 38.0018 206.732 35.0041 202.618 35.0041ZM202.715 47.0536H197.428V38.4803H202.715C203.851 38.463 204.947 38.9045 205.764 39.7079C206.58 40.5113 207.049 41.611 207.069 42.7659C207.069 44.6998 205.487 47.0536 202.715 47.0536ZM225.659 43.4603C222.979 43.4603 220.189 44.6513 219.042 47.2877L222.338 48.6746C223.044 47.2877 224.349 46.8376 225.727 46.8376C227.653 46.8376 229.606 48.0003 229.636 50.0533V50.3157C228.963 49.9261 227.526 49.3468 225.757 49.3468C222.208 49.3468 218.595 51.3109 218.595 54.9728C218.595 58.3238 221.5 60.4798 224.768 60.4798C227.265 60.4798 228.643 59.3493 229.509 58.0311H229.636V59.963H233.22V50.3743C233.22 45.9413 229.926 43.4603 225.659 43.4603ZM225.213 57.1611C223.997 57.1611 222.306 56.5555 222.306 55.0415C222.306 53.1076 224.416 52.3647 226.243 52.3647C227.877 52.3647 228.643 52.7281 229.636 53.2045C229.492 54.2953 228.964 55.2963 228.152 56.0233C227.339 56.7503 226.295 57.1544 225.213 57.1611ZM246.28 44.0074L242.016 54.8456H241.888L237.477 44.0074H233.474L240.102 59.1535L236.319 67.5794H240.199L250.41 44.0074H246.28ZM212.823 60.0033H216.544V35.0041H212.823V60.0033Z" fill="white"/>
<path d="M20.7682 15.0717C20.1835 15.6866 19.8452 16.6441 19.8452 17.8841V62.1131C19.8452 63.3531 20.1835 64.3106 20.7682 64.9255L20.9125 65.0605L45.5762 40.2861V39.7011L20.9125 14.9267L20.7682 15.0717Z" fill="url(#paint0_linear_569_74552)"/>
<path d="M53.7893 48.5547L45.5771 40.2924V39.7074L53.7992 31.4451L53.9833 31.5526L63.7204 37.1199C66.4993 38.6999 66.4993 41.2998 63.7204 42.8898L53.9833 48.4472L53.7893 48.5547Z" fill="url(#paint1_linear_569_74552)"/>
<path d="M53.9828 48.4454L45.5766 39.9981L20.7686 64.93C21.6915 65.905 23.1966 66.0225 24.9082 65.0475L53.9828 48.4454Z" fill="url(#paint2_linear_569_74552)"/>
<path d="M53.9828 31.5488L24.9082 14.9466C23.1966 13.9817 21.6915 14.0992 20.7686 15.0741L45.5766 39.9961L53.9828 31.5488Z" fill="url(#paint3_linear_569_74552)"/>
<defs>
<linearGradient id="paint0_linear_569_74552" x1="43.387" y1="62.5731" x2="9.82213" y2="29.1737" gradientUnits="userSpaceOnUse">
<stop stop-color="#00A0FF"/>
<stop offset="0.007" stop-color="#00A1FF"/>
<stop offset="0.26" stop-color="#00BEFF"/>
<stop offset="0.512" stop-color="#00D2FF"/>
<stop offset="0.76" stop-color="#00DFFF"/>
<stop offset="1" stop-color="#00E3FF"/>
</linearGradient>
<linearGradient id="paint1_linear_569_74552" x1="67.3382" y1="39.9979" x2="19.1829" y2="39.9979" gradientUnits="userSpaceOnUse">
<stop stop-color="#FFE000"/>
<stop offset="0.409" stop-color="#FFBD00"/>
<stop offset="0.775" stop-color="#FFA500"/>
<stop offset="1" stop-color="#FF9C00"/>
</linearGradient>
<linearGradient id="paint2_linear_569_74552" x1="49.4117" y1="35.4062" x2="3.8973" y2="-9.88659" gradientUnits="userSpaceOnUse">
<stop stop-color="#FF3A44"/>
<stop offset="1" stop-color="#C31162"/>
</linearGradient>
<linearGradient id="paint3_linear_569_74552" x1="14.5233" y1="79.6432" x2="34.8486" y2="59.4169" gradientUnits="userSpaceOnUse">
<stop stop-color="#32A071"/>
<stop offset="0.069" stop-color="#2DA771"/>
<stop offset="0.476" stop-color="#15CF74"/>
<stop offset="0.801" stop-color="#06E775"/>
<stop offset="1" stop-color="#00F076"/>
</linearGradient>
</defs>
</svg>
